<?xml version="1.0" standalone="no"?><!DOCTYPE svg PUBLIC "-//W3C//DTD SVG 1.1//EN" "http://www.w3.org/Graphics/SVG/1.1/DTD/svg11.dtd"><svg t="1672143784285" class="icon" viewBox="0 0 1024 1024" version="1.1" xmlns="http://www.w3.org/2000/svg" p-id="1707" xmlns:xlink="http://www.w3.org/1999/xlink" width="32" height="32"><path d="M945.230769 787.692308h78.769231v78.76923h-78.769231zM945.230769 708.923077h78.769231v78.769231h-78.769231zM945.230769 630.153846h78.769231v78.769231h-78.769231zM866.461538 866.461538h78.769231v78.769231h-78.769231z" fill="#1E2028" p-id="1708"></path><path d="M866.461538 787.692308h78.769231v78.76923h-78.769231zM866.461538 708.923077h78.769231v78.769231h-78.769231zM866.461538 630.153846h78.769231v78.769231h-78.769231z" fill="#FF9343" p-id="1709"></path><path d="M866.461538 551.384615h78.769231v78.769231h-78.769231zM787.692308 945.230769h78.76923v78.769231h-78.76923z" fill="#1E2028" p-id="1710"></path><path d="M787.692308 866.461538h78.76923v78.769231h-78.76923z" fill="#FF9343" p-id="1711"></path><path d="M787.692308 787.692308h78.76923v78.76923h-78.76923zM787.692308 708.923077h78.76923v78.769231h-78.76923zM787.692308 630.153846h78.76923v78.769231h-78.76923z" fill="#FFDD4D" p-id="1712"></path><path d="M787.692308 551.384615h78.76923v78.769231h-78.76923z" fill="#FF9343" p-id="1713"></path><path d="M787.692308 472.615385h78.76923v78.76923h-78.76923zM787.692308 393.846154h78.76923v78.769231h-78.76923zM787.692308 315.076923h78.76923v78.769231h-78.76923zM787.692308 236.307692h78.76923v78.769231h-78.76923zM787.692308 157.538462h78.76923v78.76923h-78.76923zM787.692308 78.769231h78.76923v78.769231h-78.76923zM708.923077 945.230769h78.769231v78.769231h-78.769231z" fill="#1E2028" p-id="1714"></path><path d="M708.923077 866.461538h78.769231v78.769231h-78.769231z" fill="#FF9343" p-id="1715"></path><path d="M708.923077 787.692308h78.769231v78.76923h-78.769231zM708.923077 708.923077h78.769231v78.769231h-78.769231zM708.923077 630.153846h78.769231v78.769231h-78.769231zM708.923077 551.384615h78.769231v78.769231h-78.769231z" fill="#FFDD4D" p-id="1716"></path><path d="M708.923077 472.615385h78.769231v78.76923h-78.769231zM708.923077 393.846154h78.769231v78.769231h-78.769231zM708.923077 315.076923h78.769231v78.769231h-78.769231zM708.923077 236.307692h78.769231v78.769231h-78.769231zM708.923077 157.538462h78.769231v78.76923h-78.769231zM708.923077 78.769231h78.769231v78.769231h-78.769231z" fill="#FF9343" p-id="1717"></path><path d="M708.923077 0h78.769231v78.769231h-78.769231zM630.153846 945.230769h78.769231v78.769231h-78.769231z" fill="#1E2028" p-id="1718"></path><path d="M630.153846 866.461538h78.769231v78.769231h-78.769231z" fill="#FF9343" p-id="1719"></path><path d="M630.153846 787.692308h78.769231v78.76923h-78.769231z" fill="#FFDD4D" p-id="1720"></path><path d="M630.153846 708.923077h78.769231v78.769231h-78.769231zM630.153846 630.153846h78.769231v78.769231h-78.769231z" fill="#1E2028" p-id="1721"></path><path d="M630.153846 551.384615h78.769231v78.769231h-78.769231z" fill="#FFDD4D" p-id="1722"></path><path d="M630.153846 472.615385h78.769231v78.76923h-78.769231zM630.153846 393.846154h78.769231v78.769231h-78.769231zM630.153846 315.076923h78.769231v78.769231h-78.769231zM630.153846 236.307692h78.769231v78.769231h-78.769231zM630.153846 157.538462h78.769231v78.76923h-78.769231zM630.153846 78.769231h78.769231v78.769231h-78.769231z" fill="#FFF1B6" p-id="1723"></path><path d="M630.153846 0h78.769231v78.769231h-78.769231zM551.384615 945.230769h78.769231v78.769231h-78.769231z" fill="#1E2028" p-id="1724"></path><path d="M551.384615 866.461538h78.769231v78.769231h-78.769231z" fill="#FF9343" p-id="1725"></path><path d="M551.384615 787.692308h78.769231v78.76923h-78.769231zM551.384615 708.923077h78.769231v78.769231h-78.769231zM551.384615 630.153846h78.769231v78.769231h-78.769231zM551.384615 551.384615h78.769231v78.769231h-78.769231z" fill="#FFDD4D" p-id="1726"></path><path d="M551.384615 472.615385h78.769231v78.76923h-78.769231zM551.384615 393.846154h78.769231v78.769231h-78.769231zM551.384615 315.076923h78.769231v78.769231h-78.769231zM551.384615 236.307692h78.769231v78.769231h-78.769231zM551.384615 157.538462h78.769231v78.76923h-78.769231zM551.384615 78.769231h78.769231v78.769231h-78.769231zM472.615385 945.230769h78.76923v78.769231h-78.76923z" fill="#1E2028" p-id="1727"></path><path d="M472.615385 866.461538h78.76923v78.769231h-78.76923z" fill="#FF9343" p-id="1728"></path><path d="M472.615385 787.692308h78.76923v78.76923h-78.76923z" fill="#1E2028" p-id="1729"></path><path d="M472.615385 708.923077h78.76923v78.769231h-78.76923zM472.615385 630.153846h78.76923v78.769231h-78.76923zM472.615385 551.384615h78.76923v78.769231h-78.76923z" fill="#FFDD4D" p-id="1730"></path><path d="M472.615385 472.615385h78.76923v78.76923h-78.76923zM393.846154 945.230769h78.769231v78.769231h-78.769231z" fill="#1E2028" p-id="1731"></path><path d="M393.846154 866.461538h78.769231v78.769231h-78.769231z" fill="#FF9343" p-id="1732"></path><path d="M393.846154 787.692308h78.769231v78.76923h-78.769231zM393.846154 708.923077h78.769231v78.769231h-78.769231zM393.846154 630.153846h78.769231v78.769231h-78.769231zM393.846154 551.384615h78.769231v78.769231h-78.769231z" fill="#FFDD4D" p-id="1733"></path><path d="M393.846154 472.615385h78.769231v78.76923h-78.769231zM393.846154 393.846154h78.769231v78.769231h-78.769231zM393.846154 315.076923h78.769231v78.769231h-78.769231zM393.846154 236.307692h78.769231v78.769231h-78.769231zM393.846154 157.538462h78.769231v78.76923h-78.769231zM393.846154 78.769231h78.769231v78.769231h-78.769231zM315.076923 945.230769h78.769231v78.769231h-78.769231z" fill="#1E2028" p-id="1734"></path><path d="M315.076923 866.461538h78.769231v78.769231h-78.769231z" fill="#FF9343" p-id="1735"></path><path d="M315.076923 787.692308h78.769231v78.76923h-78.769231z" fill="#FFDD4D" p-id="1736"></path><path d="M315.076923 708.923077h78.769231v78.769231h-78.769231zM315.076923 630.153846h78.769231v78.769231h-78.769231z" fill="#1E2028" p-id="1737"></path><path d="M315.076923 551.384615h78.769231v78.769231h-78.769231z" fill="#FFDD4D" p-id="1738"></path><path d="M315.076923 472.615385h78.769231v78.76923h-78.769231zM315.076923 393.846154h78.769231v78.769231h-78.769231zM315.076923 315.076923h78.769231v78.769231h-78.769231zM315.076923 236.307692h78.769231v78.769231h-78.769231zM315.076923 157.538462h78.769231v78.76923h-78.769231zM315.076923 78.769231h78.769231v78.769231h-78.769231z" fill="#FF9343" p-id="1739"></path><path d="M315.076923 0h78.769231v78.769231h-78.769231zM236.307692 945.230769h78.769231v78.769231h-78.769231z" fill="#1E2028" p-id="1740"></path><path d="M236.307692 866.461538h78.769231v78.769231h-78.769231z" fill="#FFF1B6" p-id="1741"></path><path d="M236.307692 787.692308h78.769231v78.76923h-78.769231zM236.307692 708.923077h78.769231v78.769231h-78.769231zM236.307692 630.153846h78.769231v78.769231h-78.769231zM236.307692 551.384615h78.769231v78.769231h-78.769231z" fill="#FFDD4D" p-id="1742"></path><path d="M236.307692 472.615385h78.769231v78.76923h-78.769231zM236.307692 393.846154h78.769231v78.769231h-78.769231zM236.307692 315.076923h78.769231v78.769231h-78.769231zM236.307692 236.307692h78.769231v78.769231h-78.769231zM236.307692 157.538462h78.769231v78.76923h-78.769231zM236.307692 78.769231h78.769231v78.769231h-78.769231z" fill="#FFF1B6" p-id="1743"></path><path d="M236.307692 0h78.769231v78.769231h-78.769231zM157.538462 945.230769h78.76923v78.769231H157.538462z" fill="#1E2028" p-id="1744"></path><path d="M157.538462 866.461538h78.76923v78.769231H157.538462z" fill="#FFF1B6" p-id="1745"></path><path d="M157.538462 787.692308h78.76923v78.76923H157.538462zM157.538462 708.923077h78.76923v78.769231H157.538462zM157.538462 630.153846h78.76923v78.769231H157.538462z" fill="#FFDD4D" p-id="1746"></path><path d="M157.538462 551.384615h78.76923v78.769231H157.538462z" fill="#FFF1B6" p-id="1747"></path><path d="M157.538462 472.615385h78.76923v78.76923H157.538462zM157.538462 393.846154h78.76923v78.769231H157.538462zM157.538462 315.076923h78.76923v78.769231H157.538462zM157.538462 236.307692h78.76923v78.769231H157.538462zM157.538462 157.538462h78.76923v78.76923H157.538462zM157.538462 78.769231h78.76923v78.769231H157.538462zM78.769231 866.461538h78.769231v78.769231H78.769231z" fill="#1E2028" p-id="1748"></path><path d="M78.769231 787.692308h78.769231v78.76923H78.769231zM78.769231 708.923077h78.769231v78.769231H78.769231zM78.769231 630.153846h78.769231v78.769231H78.769231z" fill="#FFF1B6" p-id="1749"></path><path d="M78.769231 551.384615h78.769231v78.769231H78.769231zM0 787.692308h78.769231v78.76923H0zM0 708.923077h78.769231v78.769231H0zM0 630.153846h78.769231v78.769231H0z" fill="#1E2028" p-id="1750"></path></svg>